<svg width="870" height="814" viewBox="0 0 870 814" fill="none" xmlns="http://www.w3.org/2000/svg">
<path fill-rule="evenodd" clip-rule="evenodd" d="M408.529 0.952978C408.157 1.55498 404.11 1.99998 399 1.99998C394.115 1.99998 389.84 2.44998 389.5 2.99998C389.153 3.56098 384.39 3.99998 378.641 3.99998C373.008 3.99998 367.972 4.42298 367.45 4.93998C366.927 5.45698 364.25 6.01998 361.5 6.18998C356.623 6.49198 356.492 6.58298 356.177 9.87698C356 11.735 356.337 13.737 356.927 14.327C357.517 14.917 358 16.345 358 17.5C358 18.655 358.412 20.027 358.915 20.55C359.419 21.072 359.981 22.625 360.165 24C360.488 26.407 360.803 26.511 368.658 26.789C374.693 27.003 376.962 27.458 377.377 28.539C378.296 30.936 376.943 33 374.452 33C373.168 33 371.84 33.45 371.5 34C371.16 34.55 369.36 35 367.5 35C365.64 35 363.84 35.45 363.5 36C363.16 36.55 361.476 37 359.758 37C358.039 37 354.014 37.93 350.814 39.066C347.613 40.203 343.758 40.99 342.247 40.816C339.863 40.542 339.459 40.005 339.19 36.748C338.919 33.485 339.221 32.866 341.505 31.998C342.949 31.449 345.338 30.993 346.815 30.985C348.292 30.976 350.162 30.551 350.971 30.039C352.586 29.018 351.863 25.994 347.916 17.261C346.862 14.929 346 12.397 346 11.633C346 9.09798 343.078 7.46998 340.932 8.80998C339.884 9.46498 338.148 9.99998 337.073 9.99998C335.998 9.99998 334.84 10.45 334.5 11C334.16 11.55 332.761 12 331.391 12C330.021 12 327.487 12.731 325.759 13.625C324.031 14.518 321.241 15.677 319.558 16.199C314.683 17.714 298.739 22.069 296 22.634C285.179 24.869 282.679 29.95 287.57 39.766C290.877 46.4 297.545 50.055 300.66 46.94C301.244 46.356 303.917 46.019 306.601 46.19C310.304 46.425 311.562 46.922 311.814 48.25C312.059 49.541 311.487 50 309.632 50C308.249 50 306.84 50.45 306.5 51C306.16 51.55 304.839 52 303.563 52C302.288 52 300.701 52.655 300.037 53.456C298.713 55.051 286.663 61.093 280.816 63.094C277.825 64.117 276.837 64.11 275.566 63.055C272.501 60.511 274.411 57.468 280.306 55.501C285.161 53.882 285.751 51.875 283.001 46.327C278.958 38.168 277.455 37 270.995 37C264.949 37 260.514 38.782 251.699 44.75C249.06 46.537 246.332 48 245.638 48C244.945 48 243.411 48.9 242.23 50C241.05 51.1 239.509 52 238.806 52C238.103 52 233.598 53.912 228.794 56.25C218.514 61.252 218.06 62.448 224.106 68.608C226.364 70.909 228.726 73.806 229.356 75.047C231.265 78.812 233.341 79.538 237.897 78.034C240.138 77.294 242.722 75.859 243.641 74.845C244.629 73.752 246.674 73 248.655 73C251.653 73 252 73.291 252 75.804C252 78.584 246.668 85 244.357 85C243.781 85 242.495 85.9 241.5 87C240.505 88.1 239.155 89 238.5 89C237.845 89 236.538 89.853 235.595 90.895C233.989 92.67 232.166 93.278 224.368 94.643C219.788 95.445 219.216 93.404 222.943 89.559C227.141 85.228 226.413 82.433 219.253 75.386C214.215 70.428 213.411 70 209.14 70.006C204.879 70.011 204.034 70.459 198.793 75.506C195.655 78.528 192.617 81 192.043 81C191.47 81 191 81.686 191 82.525C191 83.363 189.988 84.451 188.75 84.942C187.512 85.433 181.554 90.825 175.51 96.925C162.818 109.732 162.847 109.489 173.295 115C176.945 116.925 180.486 119.063 181.165 119.75C183.265 121.875 185.44 121.158 189.5 117C192.075 114.363 194.291 113 196.003 113C198.596 113 201 114.591 201 116.307C201 116.807 197.737 120.436 193.75 124.373C184.105 133.895 179 140.087 179 142.264C179 143.275 177.851 144.486 176.349 145.057C174.148 145.894 173.3 145.691 171.349 143.858C168.478 141.161 168.406 139.848 171 137.5C172.1 136.505 173 135.226 173 134.659C173 134.093 173.978 132.587 175.174 131.314L177.349 129L174.997 126.497C171.437 122.707 161.022 118 156.197 118C152.66 118 151.837 118.414 150.592 120.823C149.789 122.375 148.38 124.269 147.462 125.032C146.543 125.794 145.4 127.449 144.921 128.709C144.441 129.969 143.447 131 142.711 131C141.975 131 140.758 132.569 140.005 134.487C139.253 136.404 137.369 139.189 135.819 140.674C134.268 142.159 133 143.895 133 144.532C133 145.169 132.1 146.505 131 147.5C129.9 148.495 129 149.86 129 150.533C129 151.205 128.313 152.325 127.473 153.022C126.633 153.719 124.609 156.271 122.975 158.692L120.004 163.095L123.08 164.798C124.773 165.734 128.407 167.923 131.157 169.661C139.572 174.981 141.45 175.489 145.544 173.546C147.502 172.617 149.484 170.858 149.948 169.637C151.196 166.356 153.525 164.815 156.69 165.178C160.843 165.654 161.015 169.654 157.044 173.458C155.37 175.062 154 177.415 154 178.687C154 179.959 153.422 181 152.715 181C152.008 181 149.996 183.906 148.245 187.457C144.9 194.241 141.413 197.479 138.61 196.404C137.169 195.851 137.03 194.745 137.607 188.381L138.276 181H135.697C134.279 181 132.84 180.55 132.5 180C132.16 179.45 130.81 179 129.5 179C128.19 179 126.84 178.55 126.5 178C126.16 177.45 124.81 177 123.5 177C122.19 177 120.84 176.55 120.5 176C119.144 173.806 115.191 175.01 113.116 178.25C111.971 180.037 109.462 183.525 107.541 186C105.62 188.475 104.038 191.232 104.024 192.128C104.011 193.023 103.333 194.309 102.517 194.986C101.702 195.663 100.604 197.63 100.078 199.358C98.732 203.784 96.087 210.963 94.501 214.5C93.761 216.15 92.932 219.075 92.659 221C92.386 222.925 92.014 225.335 91.831 226.357C91.57 227.821 92.557 228.52 96.5 229.666C99.25 230.465 104.2 231.985 107.5 233.043C113.333 234.913 113.57 234.915 116 233.127C117.375 232.116 118.643 230.436 118.818 229.394C118.993 228.352 119.801 226.037 120.615 224.25C121.868 221.496 122.621 221 125.547 221C128.951 221 129 221.062 129 225.312C129 227.684 128.157 231.396 127.127 233.562C126.096 235.728 124.945 239.627 124.569 242.227C124.192 244.826 123.46 247.215 122.942 247.536C122.424 247.856 122 249.126 122 250.359C122 251.592 121.588 253.028 121.085 253.55C120.581 254.072 120.019 255.625 119.835 257C119.555 259.086 118.888 259.551 115.806 259.807C112.309 260.098 112.078 259.931 111.469 256.687C111.005 254.212 111.405 252.126 112.913 249.17C115.641 243.824 115.581 243.458 111.75 242.038C109.962 241.375 107.719 240.421 106.764 239.917C105.809 239.412 103.248 239 101.073 239C98.898 239 96.84 238.55 96.5 238C95.632 236.595 87.65 236.75 86.2 238.2C85.54 238.86 85 240.408 85 241.641C85 242.874 84.55 244.16 84 244.5C83.45 244.84 83 247.54 83 250.5C83 253.46 82.55 256.16 82 256.5C81.45 256.84 81 258.576 81 260.359C81 262.142 80.591 264.028 80.092 264.55C79.593 265.073 78.961 267.75 78.689 270.5C78.416 273.25 77.639 277.525 76.963 280C76.287 282.475 75.681 287.425 75.617 291L75.5 297.5L88.888 297.78C103.684 298.089 106 297.313 106 292.045C106 288.971 107.641 287 110.2 287C111.855 287 111.994 288.186 111.927 301.75C111.867 313.906 111.546 317.028 110.101 319.5C106.401 325.834 100.366 322.314 99.813 313.5L99.5 308.5L86.876 308.221L74.252 307.942L73.483 313.721C72.465 321.372 72.54 342.193 73.628 353.807C74.396 362 74.799 363.35 77 365.081C79.076 366.715 80.518 366.957 85.5 366.507C105.911 364.664 104 365.132 104 361.974C104 360.403 103.55 358.84 103 358.5C102.45 358.16 102 356.81 102 355.5C102 354.19 101.543 352.835 100.984 352.49C99.059 351.3 101.126 350 104.944 350C110.457 350 112 352.791 112 362.765C112 367.074 112.412 371.027 112.916 371.55C113.419 372.072 114.07 375.2 114.361 378.5C114.653 381.8 115.028 385.85 115.196 387.5C115.481 390.309 115.261 390.52 111.75 390.81L108 391.121V386.619C108 384.144 107.55 381.84 107 381.5C106.45 381.16 106 379.839 106 378.563C106 374.943 103.716 373.753 97.784 374.283C90.737 374.912 78.868 377.021 77 377.976C75.243 378.874 75.243 383.372 77 390C77.656 392.475 78.416 396.75 78.689 399.5C78.961 402.25 79.593 404.928 80.092 405.45C80.591 405.972 81 407.858 81 409.641C81 411.424 81.45 413.16 82 413.5C82.55 413.84 83.007 416.004 83.015 418.309C83.029 422.32 84.87 429.204 86.315 430.648C86.692 431.025 87 432.895 87 434.805V438.276L94.75 437.578C99.012 437.195 102.927 436.458 103.45 435.94C103.972 435.423 106.024 435 108.009 435C114.073 435 114.91 433.665 115.223 423.5C115.494 414.681 115.549 414.5 117.96 414.5C120.845 414.5 125 419.928 125 423.696C125 425.016 125.9 427.959 127 430.236C128.1 432.513 129 435.402 129 436.657C129 437.912 129.9 440.542 131 442.5C132.1 444.458 133 447.397 133 449.03C133 451.623 132.641 452 130.174 452C126.936 452 124.156 449.309 121.589 443.69C119.689 439.528 117.5 438.1 115.733 439.867C115.11 440.49 113.142 441 111.359 441C109.576 441 107.871 441.4 107.568 441.89C107.266 442.379 105.439 443.054 103.509 443.39C101.579 443.725 98.425 444.274 96.5 444.609C93.526 445.127 93 445.62 93 447.888C93 449.356 95.475 455.626 98.5 461.821C101.525 468.016 104 473.419 104 473.828C104 475.796 115.201 496.601 117.62 499.125C122.747 504.477 131.916 502.397 141.75 493.652C144.617 491.102 144.578 489.479 141.504 483.419C138.598 477.692 138.314 475.523 140.582 476.393C141.452 476.727 143.445 477 145.011 477C147.274 477 148.489 477.934 150.929 481.55C152.618 484.053 154 486.473 154 486.928C154 487.383 154.665 488.307 155.477 488.981C156.289 489.655 158.165 492.748 159.646 495.853C161.126 498.959 163.113 502.4 164.061 503.5C166.608 506.457 167.418 511.409 165.6 512.917C163.279 514.843 159.664 513.803 158.228 510.798C156.574 507.336 152.332 503.996 149.615 504.015C146.526 504.037 140.372 506.353 138.214 508.306C137.185 509.238 135.66 510 134.825 510C132.639 510 127 512.971 127 514.123C127 515.602 129.98 521.078 132.898 524.963C135.69 528.678 139.158 532.63 148.25 542.456C151.413 545.874 154 549.094 154 549.612C154 550.13 157.057 553.587 160.793 557.294C167.4 563.851 167.64 563.987 169.577 562.267C173.193 559.059 179.872 554 180.491 554C181.498 554 188 547.371 188 546.345C188 545.821 186.425 543.866 184.5 542C179.938 537.578 179.564 533 183.764 533C185.974 533 189.085 535.561 199.264 545.764C211.114 557.64 214.139 562 210.53 562C209.722 562 207.458 561.1 205.5 560C203.542 558.9 201.079 558 200.029 558C198.978 558 197.84 557.55 197.5 557C196.442 555.288 191.541 555.898 186.711 558.343C180.435 561.52 179 562.852 179 565.5C179 566.74 178.325 568.315 177.5 569C176.675 569.685 176 570.777 176 571.426C176 572.953 182.226 579 183.798 579C184.459 579 185 579.353 185 579.784C185 580.216 186.238 581.313 187.75 582.222C191.195 584.294 195.201 587.431 200.557 592.25C202.848 594.313 205.145 596 205.659 596C206.173 596 208.352 597.8 210.5 600C212.648 602.2 214.905 604 215.516 604C216.126 604 217.919 605.35 219.5 607C221.081 608.65 223.089 610 223.962 610C225.69 610 239.116 596.802 240.838 593.409C241.751 591.611 241.307 590.736 237.662 587.159C235.331 584.872 232.879 583 232.212 583C229.846 583 231.044 579.469 233.83 578.236C236.177 577.197 237.182 577.244 239.724 578.512C241.41 579.353 243.342 580.707 244.017 581.521C244.692 582.334 245.611 583 246.057 583C247.453 583 268.328 597.436 268.735 598.682C268.948 599.333 268.171 600.374 267.008 600.996C265.28 601.92 263.957 601.659 259.751 599.563C252.629 596.014 250.898 596.26 245.579 601.579C243.061 604.097 241 606.438 241 606.781C241 607.124 239.562 608.889 237.804 610.702L234.608 614L238 617.5C239.866 619.425 242.143 621 243.061 621C243.979 621 245.803 621.801 247.115 622.78C249.737 624.737 261.548 630.558 275.5 636.77C289.958 643.207 291.97 644 293.838 644C295.823 644 302 638.077 302 636.174C302 635.497 303.309 632.351 304.908 629.183C307.989 623.08 307.719 620 304.104 620C299.934 620 293.186 615.126 294.473 613.044C295.546 611.307 304.773 611.845 308.79 613.878C310.83 614.911 314.075 616.091 316 616.5C317.925 616.909 321.17 618.089 323.21 619.122C325.251 620.155 327.994 621 329.305 621C332.157 621 335 623.857 335 626.722C335 630.175 329.746 630.994 321.592 628.813C316.717 627.509 314 628.633 314 631.953C314 634.065 309.835 642.42 307.491 645.01C305.115 647.635 306.261 650 309.91 650C311.544 650 313.16 650.45 313.5 651C313.84 651.55 315.64 652 317.5 652C319.36 652 321.16 652.45 321.5 653C321.84 653.55 324.491 654 327.392 654C330.293 654 332.975 654.308 333.352 654.685C334.796 656.13 341.68 657.971 345.691 657.985C347.996 657.993 350.16 658.45 350.5 659C350.84 659.55 353.09 660 355.5 660C357.91 660 360.16 660.45 360.5 661C361.313 662.315 370.591 662.289 373.066 660.965C374.467 660.215 375 658.862 375 656.059C375 653.931 375.963 650.385 377.14 648.18C379.754 643.282 379.103 641 375.09 641C373.456 641 371.84 640.55 371.5 640C371.16 639.45 369.874 639 368.641 639C365.937 639 364 637.247 364 634.8C364 633.228 364.942 633 371.441 633C375.534 633 379.16 633.45 379.5 634C379.84 634.55 382.09 635 384.5 635C386.91 635 389.16 635.45 389.5 636C389.84 636.55 393.241 637 397.059 637H404V640C404 642.752 403.716 643 400.559 643C398.666 643 396.84 643.45 396.5 644C396.16 644.55 394.366 645 392.514 645C387.823 645 385 648.732 385 654.935C385 657.501 384.438 660.172 383.75 660.871C382.747 661.891 382.967 662.523 384.861 664.071C387.075 665.88 389.069 666 416.956 666C452.339 666 450 666.859 450 653.871C450 648.616 449.544 644.944 448.8 644.2C447.348 642.748 441.363 642.604 440.5 644C439.526 645.575 434.843 645.168 432.814 643.331C431.059 641.743 431.296 641.551 437.735 639.357C443.385 637.432 446.56 637.053 457 637.058C466.312 637.062 469.984 637.43 471.398 638.501C474.159 640.59 471.821 643 467.033 643C464.696 643 462.694 643.681 461.655 644.829C459.817 646.86 459.455 650.545 461 651.5C461.55 651.84 462 654.556 462 657.536C462 662.211 462.343 663.178 464.498 664.591C466.223 665.721 468.003 666.023 470.248 665.566C472.037 665.203 474.967 664.652 476.759 664.342C478.552 664.032 480.266 663.379 480.568 662.89C480.871 662.4 483.926 662 487.359 662C490.792 662 494.027 661.596 494.55 661.102C495.573 660.136 500.932 659.217 510.5 658.365C513.8 658.072 516.928 657.419 517.45 656.916C517.973 656.412 519.885 656 521.7 656H525V650.7C525 647.785 524.588 644.973 524.085 644.45C523.581 643.928 523.019 642.395 522.835 641.044C522.366 637.607 515.715 634.072 512.957 635.794C510.321 637.441 508.926 637.286 506 635.02L503.5 633.084L506.176 630.388C509.423 627.119 515.05 625.035 520.691 625.015C522.996 625.007 525.16 624.55 525.5 624C525.84 623.45 527.19 623 528.5 623C529.81 623 531.16 622.55 531.5 622C532.626 620.178 539.559 620.855 541.477 622.975C543.204 624.883 543.185 624.982 540.882 625.943C539.572 626.49 536.7 628.207 534.5 629.759C531.26 632.045 530.442 633.274 530.193 636.23C529.889 639.847 531.798 644.854 534.776 648.25C535.905 649.538 537.837 650 542.096 650C545.278 650 548.16 649.55 548.5 649C548.84 648.45 549.907 648 550.871 648C551.835 648 554.487 647.1 556.764 646C559.041 644.9 561.995 644 563.329 644C564.663 644 566.315 643.325 567 642.5C567.685 641.675 568.881 641 569.658 641C570.435 641 574.468 639.2 578.62 637C582.773 634.8 586.738 633 587.431 633C589.387 633 595.094 629.919 595.605 628.588C596.264 626.869 592.451 618.716 589.922 616.438C588.738 615.372 587.383 613.487 586.91 612.25C585.818 609.394 582.306 609.301 577.5 612C573.264 614.379 570.429 614.56 569.638 612.5C568.661 609.954 569.86 608.592 575.279 606.086C578.151 604.759 581.266 603.021 582.202 602.224C588.226 597.1 599.371 594.333 601.868 597.341C602.734 598.384 602.095 599.392 598.99 601.888C595.614 604.601 595 605.672 595 608.851C595 614.736 602.363 621 609.281 621C612.679 621 618.438 618.719 619.539 616.937C619.858 616.422 620.879 615.998 621.809 615.996C622.739 615.993 625.872 614.193 628.77 611.996C631.669 609.798 634.862 608 635.865 608C636.869 608 638.505 607.1 639.5 606C640.495 604.9 641.845 604 642.5 604C643.155 604 644.505 603.1 645.5 602C646.495 600.9 648.365 600 649.655 600C651.078 600 652 599.407 652 598.492C652 597.662 653.8 596.264 656 595.383C660.484 593.589 661.104 591.646 657.75 589.898C656.513 589.253 653.164 586.537 650.31 583.862C644.307 578.239 640.64 577.612 633.887 581.058C629.611 583.239 623.931 583.345 623.246 581.256C623.021 580.572 623.887 579.611 625.169 579.121C626.451 578.631 628.389 577.243 629.475 576.037C630.562 574.831 633.262 573.018 635.475 572.008C637.689 570.998 640.625 568.964 642 567.487C646.407 562.754 658 557.965 658 560.878C658 561.36 657.325 562.315 656.5 563C655.675 563.685 655 564.876 655 565.647C655 566.418 653.828 567.495 652.395 568.04C650.184 568.881 649.892 569.443 650.463 571.765C651.257 574.997 657.291 581.497 661.404 583.55C667.217 586.453 672.847 584.848 678.954 578.548C680.845 576.596 682.876 575 683.468 575C684.06 575 688.349 571.175 693 566.5C697.651 561.825 701.94 558 702.532 558C704.132 558 709.674 551.848 710.48 549.178C711.337 546.336 708.675 543 705.548 543C704.367 543 701.654 541.206 699.5 539C694.061 533.43 689.939 533.43 684.5 539C680.684 542.908 676 544.413 676 541.732C676 540.069 680.439 533.407 684.483 529C686.25 527.075 689.216 523.096 691.076 520.158C694.88 514.146 699.616 510.834 700.63 513.477C700.956 514.328 699.981 517.562 698.463 520.665C695.198 527.339 695.545 528.307 702.604 532.201C705.297 533.687 709.211 535.846 711.301 536.998L715.103 539.093L719.274 536.792C721.568 535.527 723.948 533.484 724.561 532.252C725.175 531.021 726.425 529.188 727.339 528.178C728.252 527.169 729 525.9 729 525.358C729 524.817 730.35 523.081 732 521.5C733.65 519.919 735 518.105 735 517.468C735 516.831 735.9 515.495 737 514.5C738.1 513.505 739 512.155 739 511.5C739 510.845 739.9 509.495 741 508.5C742.1 507.505 743 506.345 743 505.923C743 505.502 745.025 502.137 747.5 498.446C752.599 490.842 753.019 489 749.655 489C748.365 489 746.495 488.1 745.5 487C744.505 485.9 742.452 485 740.94 485C739.427 485 736.373 484.031 734.154 482.846C730.372 480.828 729.963 480.794 727.65 482.31C726.292 483.2 723.888 485.856 722.308 488.214C719.045 493.081 716.22 494.005 713.567 491.074C711.847 489.174 711.838 488.862 713.399 485.572C714.309 483.654 715.483 481.82 716.008 481.495C716.533 481.171 718.333 478.114 720.009 474.703C726.91 460.653 730.191 457.219 734.734 459.288C736.318 460.01 736.864 460.866 736.419 461.928C734.924 465.501 733.804 471.047 734.311 472.367C734.843 473.756 740.403 477 742.249 477C742.767 477 744.492 477.926 746.082 479.058C748.14 480.524 750.167 481.028 753.124 480.808C756.665 480.545 757.538 480.01 759.055 477.171C760.033 475.339 761.546 473.054 762.417 472.092C763.288 471.13 764 469.604 764 468.702C764 467.799 764.9 465.458 766 463.5C767.1 461.542 768 459.236 768 458.377C768 457.518 768.9 455.671 770 454.273C771.1 452.874 772 451.105 772 450.34C772 449.576 773.519 445.924 775.375 442.225C779.517 433.973 780.568 429.695 778.794 428.302C777.508 427.292 768.447 425.357 760.178 424.326C756.606 423.881 755.434 424.183 753.428 426.068C752.092 427.322 750.986 429.058 750.968 429.924C750.909 432.862 748.308 435.166 745.436 434.825C741.808 434.394 740.092 431.684 741.757 429.017C742.441 427.923 743 425.777 743 424.249C743 422.722 743.9 419.009 745 416C746.1 412.991 747 409.296 747 407.791C747 406.285 747.99 403.016 749.199 400.527C750.837 397.156 751.972 396 753.643 396C756.32 396 759.475 399.925 757.991 401.409C757.446 401.954 757 405.235 757 408.7V415H759.941C761.559 415 763.16 415.45 763.5 416C763.84 416.55 765.19 417 766.5 417C767.81 417 769.16 417.45 769.5 418C769.84 418.55 772.09 419 774.5 419C776.91 419 779.165 419.457 779.51 420.016C781.119 422.619 785 415.471 785 409.905C785 407.822 785.45 405.84 786 405.5C786.55 405.16 787 403.135 787 401C787 398.865 787.45 396.84 788 396.5C788.55 396.16 789 393.46 789 390.5C789 387.54 789.45 384.84 790 384.5C790.55 384.16 791 382.424 791 380.641C791 378.858 791.409 376.972 791.908 376.45C792.717 375.603 793.534 370.402 794.257 361.5L794.5 358.5H779.5H764.5L764 363.042C763.697 365.792 762.503 368.851 760.974 370.793C758.579 373.835 758.332 373.921 756.224 372.444C754.088 370.948 754 370.272 754 355.408C754 337.457 754.796 335 760.615 335H764V340.845C764 348.431 765.589 350 773.27 350C776.356 350 779.16 350.45 779.5 351C779.84 351.55 782.257 352 784.872 352C788.798 352 790.103 351.501 792.367 349.139L795.109 346.277L794.589 332.389C794.304 324.75 793.717 312.808 793.285 305.85C792.356 290.873 791.368 289 784.404 289C782.047 289 779.84 289.45 779.5 290C779.16 290.55 777.36 291 775.5 291C773.64 291 771.84 291.45 771.5 292C771.16 292.55 769.164 293 767.063 293C761.679 293 760.584 294.742 761.351 302.081L761.982 308.12L758.241 307.81L754.5 307.5L753.769 301C753.367 297.425 752.763 292.025 752.427 289C752.091 285.975 751.407 283.073 750.908 282.55C749.887 281.482 749.674 273.012 750.607 270.582C750.995 269.572 752.434 269 754.588 269C757.461 269 758.048 269.408 758.544 271.75C758.864 273.262 759.398 275.625 759.731 277C760.064 278.375 760.381 279.725 760.434 280C760.934 282.583 762.805 283 773.904 283C784.052 283 785.92 282.746 787.345 281.171C789.201 279.121 789.511 276.434 788 275.5C787.45 275.16 787 272.974 787 270.641C787 268.308 786.591 265.972 786.092 265.45C785.593 264.927 784.91 262.025 784.575 259C783.05 245.224 782.761 243.443 781.908 242.55C781.409 242.028 781 240.592 781 239.359C781 238.126 780.55 236.84 780 236.5C779.45 236.16 778.998 234.896 778.995 233.691C778.989 230.834 772.927 224.271 769.5 223.411C768.027 223.041 765.062 223.247 762.911 223.869C760.76 224.491 757.088 225.53 754.75 226.178C746.63 228.428 745.27 231.57 749.216 238.963C751.062 242.421 751.197 243.26 750.025 243.984C748.071 245.192 743 242.41 743 240.129C743 239.129 742.1 237.495 741 236.5C739.9 235.505 739 233.873 739 232.875C739 231.877 738.1 229.458 737 227.5C735.9 225.542 735 223.292 735 222.5C735 221.708 734.1 219.458 733 217.5C731.9 215.542 731 212.603 731 210.97C731 208.339 731.341 208 733.988 208C736.571 208 737.542 208.881 741.149 214.5C743.445 218.075 745.686 221 746.131 221C746.575 221 748.542 220.1 750.5 219C752.458 217.9 754.68 217 755.436 217C756.192 217 758.541 216.137 760.655 215.083C762.77 214.028 765.287 212.917 766.25 212.614C769.44 211.609 768.15 206.669 761 192.5C757.15 184.871 754 177.882 754 176.969C754 176.057 753.1 174.495 752 173.5C750.9 172.505 750 170.95 750 170.045C750 169.14 749.478 167.878 748.839 167.239C748.2 166.6 746.936 163.923 746.029 161.289C744.604 157.149 743.976 156.46 741.389 156.201C739.369 156 737.796 156.568 736.544 157.951C735.524 159.078 733.705 160 732.5 160C731.295 160 729.495 160.9 728.5 162C727.505 163.1 725.705 164 724.5 164C723.295 164 721.543 164.847 720.606 165.882C718.66 168.033 719.153 171.396 722.218 176.875C724.974 181.802 724.283 184.425 720.123 184.823C717.42 185.081 716.072 184.493 713.373 181.877C711.518 180.079 710 177.626 710 176.426C710 175.227 709.345 173.701 708.544 173.037C706.88 171.655 700.479 158.725 699.642 155.052C699.335 153.706 699.57 152.018 700.164 151.302C702.066 149.01 705.161 149.894 709.616 154C712.052 156.246 714.952 157.994 716.228 157.985C721.474 157.952 733.126 152.666 736.924 148.597L739.349 146L737.174 143.686C735.978 142.413 735 140.838 735 140.186C735 139.533 734.314 139 733.475 139C732.637 139 731.554 137.988 731.069 136.75C730.584 135.512 726.545 130.834 722.094 126.354C717.642 121.873 714 117.808 714 117.32C714 115.958 703.862 106.571 700.688 104.994C698.462 103.887 697.476 103.846 695.952 104.798C694.893 105.459 693.212 106 692.217 106C691.221 106 688.648 107.8 686.5 110C684.295 112.259 681.641 114 680.405 114C678.961 114 678.022 114.775 677.645 116.28C676.9 119.248 677.903 123 679.442 123C681.187 123 685 127.333 685 129.314C685 131.926 683.111 131.336 678.397 127.25C671.859 121.583 667.295 118 666.616 118C666.281 118 663.067 115.146 659.474 111.658C652.017 104.417 651.644 102 657.985 102C660.058 102 662.258 102.605 662.872 103.346C663.486 104.086 665.818 105.516 668.055 106.525C671.617 108.131 672.569 108.196 675.747 107.047C677.741 106.326 682.098 103.11 685.428 99.902L691.483 94.068L687.033 89.534C684.586 87.04 682.094 85 681.495 85C680.896 85 678.648 83.2 676.5 81C674.352 78.8 672.267 77 671.866 77C670.512 77 664.085 72.507 664 71.5C663.912 70.46 657.468 66 656.053 66C655.609 66 654.692 65.334 654.017 64.521C653.342 63.707 651.418 62.357 649.741 61.521C641.097 57.209 631.485 63.211 629.478 74.176C628.84 77.664 629.014 77.984 632.903 80.439C635.156 81.861 637 83.709 637 84.544C637 86.645 634.116 87.554 631.881 86.158C630.861 85.521 629.191 85 628.169 85C627.146 85 625.495 84.1 624.5 83C623.505 81.9 622.155 81 621.5 81C620.845 81 619.495 80.1 618.5 79C617.505 77.9 616.233 77 615.674 77C615.115 77 613.843 76.263 612.847 75.361C611.851 74.46 609.115 72.767 606.768 71.599C603.888 70.165 602.5 68.828 602.5 67.487C602.5 64.58 608.679 64.286 613.89 66.944C616.107 68.075 618.525 69 619.264 69C620.81 69 627 62.91 627 61.389C627 60.831 628.35 59.081 630 57.5C633.649 54.004 633.902 50.196 630.686 47.174C629.413 45.978 627.994 45 627.532 45C625.862 45 616.292 40.057 615.039 38.547C614.333 37.696 612.982 37 612.038 37C611.093 37 605.901 34.75 600.5 32C592.156 27.752 589.831 27 585.039 27C579.238 27 574.022 28.685 574.008 30.563C574.004 31.148 572.65 32.919 571 34.5C569.042 36.376 568 38.363 568 40.222C568 43.777 570.675 48 572.928 48C575.372 48 580.389 53.544 579.661 55.44C578.872 57.498 578.364 57.43 572.581 54.496C569.875 53.123 566.176 52 564.361 52C562.546 52 559.458 51.1 557.5 50C555.542 48.9 552.922 48 551.678 48C548.692 48 540.5 39.744 541.333 37.574C542.021 35.782 545.082 35.482 546.652 37.052C547.237 37.637 550.527 37.97 554.076 37.802C559.521 37.544 560.612 37.173 561.564 35.257C562.176 34.023 563.425 32.188 564.339 31.178C565.252 30.169 566 28.513 566 27.5C566 26.487 566.73 24.851 567.621 23.866C569.757 21.506 568.761 19.2 565.293 18.48C560.524 17.491 554.75 15.939 548.369 13.93C544.997 12.869 540.411 12 538.178 12C535.945 12 533.84 11.55 533.5 11C533.16 10.45 531.81 9.99998 530.5 9.99998C529.19 9.99998 527.84 9.54998 527.5 8.99998C527.16 8.44998 524.524 7.99998 521.641 7.99998C518.758 7.99998 515.915 7.51498 515.322 6.92198C513.526 5.12598 508.561 6.22598 508.199 8.49998C508.024 9.59998 506.557 13.255 504.94 16.623C501.275 24.255 501.246 25.801 504.75 26.549C515.489 28.844 520.274 31.324 516.363 32.57C515.338 32.896 513.466 33.576 512.203 34.081C509.175 35.292 505.273 35.251 504.5 34C504.16 33.45 501.46 33 498.5 33C495.54 33 492.84 32.55 492.5 32C492.16 31.45 489.996 30.993 487.691 30.985C483.688 30.971 476.797 29.13 475.358 27.691C474.985 27.318 475.496 26.11 476.494 25.006C477.972 23.373 479.573 23 485.096 23C489.431 23 492.171 22.549 492.683 21.75C494.641 18.695 495.971 13.054 495.985 7.74998L496 1.99998H465.155C429.29 1.99998 431 1.51598 431 11.674C431 17.914 431.526 18.838 436.736 21.75C437.966 22.437 441.004 23 443.486 23C445.969 23 448 23.36 448 23.8C448 25.761 445.234 27 440.859 27C438.251 27 435.84 27.45 435.5 28C434.694 29.304 418.306 29.304 417.5 28C417.16 27.45 415.389 27 413.563 27C410.326 27 407.361 24.973 408.675 23.658C409.037 23.296 411.868 23 414.967 23C418.065 23 421.14 22.46 421.8 21.8C423.22 20.38 423.41 12.814 422.06 11.45C421.543 10.927 420.98 8.24998 420.81 5.49998L420.5 0.499978L414.838 0.202978C411.642 0.0349784 408.895 0.360978 408.529 0.952978ZM410.179 10.662C411.896 12.216 411.907 12.445 410.353 14.162C409.044 15.609 407.216 16 401.76 16H394.829L395.371 22.25C395.669 25.688 396.203 30.637 396.557 33.25L397.201 38H403.401C406.81 38 410.03 37.57 410.556 37.044C411.081 36.519 419.834 35.887 430.006 35.64C440.177 35.392 450.638 34.877 453.25 34.494L458 33.799V26.599C458 22.48 458.495 18.905 459.158 18.242C461.276 16.124 458.231 14 453.078 14C447.847 14 445.369 12.465 447.146 10.324C447.986 9.31198 452.651 8.99998 466.956 8.99998C477.247 8.99998 485.973 9.30598 486.347 9.68098C486.722 10.055 485.813 11.63 484.327 13.181C481.815 15.802 481.077 16 473.813 16H466V23.3C466 27.496 465.508 31.092 464.842 31.758C462.98 33.62 465.512 35.736 470.292 36.313C472.606 36.593 476.525 37.344 479 37.983C481.475 38.622 484.967 39.387 486.759 39.683C488.552 39.979 490.266 40.621 490.568 41.11C490.871 41.6 492.19 42 493.5 42C494.81 42 496.16 42.45 496.5 43C496.84 43.55 499.09 44 501.5 44C503.91 44 506.16 44.45 506.5 45C506.84 45.55 508.19 46 509.5 46C510.81 46 512.16 46.45 512.5 47C513.366 48.401 520.349 48.251 521.8 46.8C522.46 46.14 523 44.592 523 43.359C523 42.126 523.4 40.871 523.89 40.568C524.961 39.906 526.072 34.16 526.319 28C526.494 23.646 526.399 23.49 523.373 23.196C519.725 22.841 515.471 18.821 516.342 16.551C517.008 14.816 522.507 14.393 523.5 16C523.84 16.55 525.19 17 526.5 17C527.81 17 529.16 17.45 529.5 18C529.84 18.55 532.09 19 534.5 19C536.91 19 539.129 19.4 539.432 19.89C539.734 20.379 541.561 21.054 543.491 21.39C545.421 21.725 548.575 22.274 550.5 22.609C552.425 22.945 554 23.62 554 24.109C554 24.599 554.005 25.337 554.011 25.75C554.018 26.163 550.305 26.725 545.761 27C537.865 27.478 537.485 27.61 537.162 30C536.977 31.375 536.058 33.4 535.121 34.5C532.934 37.067 529.995 43.565 530.018 45.784C530.034 47.411 537.958 52 540.749 52C541.404 52 543.542 52.9 545.5 54C547.458 55.1 549.861 56 550.839 56C551.817 56 553.491 56.661 554.559 57.468C555.626 58.276 557.274 58.951 558.22 58.968C559.165 58.986 561.542 59.9 563.5 61C565.458 62.1 568.371 63 569.971 63C571.572 63 573.16 63.45 573.5 64C574.88 66.233 586.967 64.208 586.992 61.74C586.996 61.322 588.602 58.701 590.559 55.916C592.517 53.131 593.979 50.136 593.809 49.26C593.639 48.384 591.52 46.274 589.1 44.57C583.197 40.414 582.057 38.515 584.187 36.385C585.724 34.847 586.528 35.068 595.67 39.537C601.076 42.18 606.4 45.093 607.5 46.01C608.6 46.928 611.87 48.763 614.768 50.089C619.272 52.151 619.997 52.862 619.768 55C619.414 58.306 616.316 58.705 611.595 56.053C607.387 53.69 604.892 53.486 601.736 55.25C598.263 57.191 595 60.228 595 61.519C595 62.163 594.1 63.505 593 64.5C590.48 66.781 590.326 71.825 592.75 72.68C593.712 73.02 595.4 74.073 596.5 75.02C599.795 77.858 608.916 84 609.835 84C610.305 84 611.505 84.9 612.5 86C613.495 87.1 614.845 88 615.5 88C616.155 88 617.505 88.9 618.5 90C619.495 91.1 620.86 92 621.533 92C622.205 92 623.308 92.666 623.983 93.479C625.629 95.462 630.84 98 633.266 98C634.344 98 636.637 96.852 638.363 95.448C646.958 88.457 650.269 86 651.095 86C652.502 86 652.16 81.005 650.75 80.958C649.297 80.908 645 74.536 645 72.431C645 70.494 645.905 70.617 651.144 73.27C656.395 75.928 659.569 78.341 668.553 86.505C674.463 91.875 675.089 92.799 674.472 95.255C673.568 98.858 672.002 98.719 666 94.5C663.261 92.575 660.353 91 659.537 91C657.003 91 649 95.329 649 96.699C649 97.415 648.311 98 647.469 98C646.626 98 645.658 98.787 645.317 99.75C644.975 100.712 644.106 102.192 643.386 103.037C641.968 104.7 642.592 109 644.251 109C645.644 109 664 127.096 664 128.468C664 129.073 666.362 131.859 669.25 134.659C676.499 141.687 679.182 142.052 688.911 137.334C700.549 131.691 702.289 129.381 697.898 125.407C696.741 124.361 695.153 122.263 694.368 120.744C693.016 118.13 693.076 117.923 695.503 116.816C697.857 115.744 698.432 116.008 702.533 120.033C704.99 122.444 707 124.998 707 125.708C707 126.419 707.675 127 708.5 127C709.325 127 710 127.489 710 128.087C710 128.684 712.7 131.985 716 135.421C722.558 142.251 723.552 145.394 719.479 146.416C716.469 147.171 714.487 146.209 710.563 142.086C707.043 138.387 702.287 137.921 699.5 141C698.505 142.1 697.332 143 696.895 143C695.411 143 686.845 149.24 686.269 150.74C685.769 152.044 687.972 157.088 692.417 164.814C693.149 166.086 694.857 168.336 696.212 169.814C697.567 171.291 699.415 174.126 700.319 176.112C701.223 178.099 702.546 180.208 703.258 180.799C703.97 181.39 706.09 185.052 707.969 188.937L711.386 196H717.071C720.984 196 723.156 195.517 724.041 194.45C724.748 193.598 727.177 192.058 729.438 191.028C731.699 189.998 734.362 188.258 735.354 187.161C737.311 184.999 736.822 183.231 732.851 178.115C730.218 174.722 730.513 172.135 733.672 170.934C736.782 169.752 739 170.34 739 172.346C739 173.121 739.657 174.3 740.46 174.967C741.263 175.634 744.656 181.723 748 188.5C751.344 195.277 754.737 201.366 755.54 202.033C757.838 203.94 757.253 206.73 754.25 208.191C751.197 209.676 747 208.537 747 206.223C747 205.507 746.061 203.079 744.913 200.829L742.826 196.738L737.27 197.312C734.215 197.627 731.239 198.361 730.658 198.942C730.076 199.524 728.916 200 728.08 200C727.244 200 724.445 201.012 721.861 202.25C717.498 204.339 717.204 204.715 717.748 207.5C718.071 209.15 719.159 211.976 720.167 213.78C721.175 215.585 722 217.676 722 218.429C722 219.181 723.35 222.363 725 225.5C726.65 228.637 728 232.045 728 233.075C728 234.104 728.869 236.871 729.932 239.223C730.995 241.575 732.117 244.175 732.426 245C732.735 245.825 733.367 247.175 733.832 248C734.297 248.825 735.326 250.85 736.12 252.5C737.659 255.7 742.255 257.145 744.322 255.078C744.915 254.485 747.535 254 750.144 254C753.719 254 755.58 253.405 757.694 251.585C760.238 249.396 760.477 248.632 760.254 243.396C760.051 238.637 760.389 237.215 762.178 235.311C765.107 232.192 768 232.257 768 235.441C768 236.784 768.45 238.16 769 238.5C769.55 238.84 770 240.19 770 241.5C770 242.81 770.45 244.16 771 244.5C771.55 244.84 772 246.865 772 249C772 251.135 772.45 253.16 773 253.5C773.55 253.84 774 255.64 774 257.5C774 259.36 774.45 261.16 775 261.5C775.55 261.84 776 264.566 776 267.559C776 271.995 775.689 273 774.314 273C771.725 273 768 268.947 768 266.13C768 261 758.792 255.291 756.5 259C756.16 259.55 754.81 260 753.5 260C752.19 260 750.84 260.45 750.5 261C750.16 261.55 747.728 262 745.096 262C741.663 262 739.824 262.537 738.59 263.901C737.464 265.145 737.238 266.029 737.935 266.46C738.521 266.822 739 269.99 739 273.5C739 277.01 739.45 280.16 740 280.5C740.55 280.84 741 282.64 741 284.5C741 286.36 741.45 288.16 742 288.5C742.55 288.84 743 292.215 743 296C743 299.785 743.45 303.16 744 303.5C744.55 303.84 745 305.64 745 307.5C745 309.36 745.45 311.16 746 311.5C746.55 311.84 747 313.126 747 314.359C747 315.592 747.54 317.14 748.2 317.8C749.846 319.446 770.154 319.446 771.8 317.8C772.46 317.14 773 314.315 773 311.523C773 299.625 781.083 298.74 782.336 310.5C782.629 313.25 783.378 317.975 784 321C787.14 336.264 786.073 341 779.496 341C775.664 341 775.244 340.203 774.764 332L774.5 327.5H760H745.5L745.232 352.402C744.917 381.673 744.709 381 754.096 381C757.278 381 760.16 381.45 760.5 382C760.84 382.55 763.293 383 765.952 383C771.202 383 772 382.191 772 376.869C772 373.143 774.369 368.456 776.704 367.56C777.898 367.102 779.06 367.591 780.241 369.05C782.14 371.394 782.629 377.493 781 378.5C780.45 378.84 780 381.09 780 383.5C780 385.91 779.55 388.16 779 388.5C778.45 388.84 778 391.09 778 393.5C778 395.91 777.55 398.16 777 398.5C776.45 398.84 776 400.39 776 401.944C776 403.875 775.187 405.303 773.433 406.452C769.494 409.033 768.139 407.16 767.792 398.662L767.5 391.5L763.5 391.183C761.3 391.009 759.072 390.446 758.55 389.933C758.028 389.42 754.831 389 751.446 389C746.402 389 744.842 389.417 742.798 391.311C739.574 394.3 733.902 411.738 732.33 423.5C732.036 425.7 731.391 427.927 730.898 428.45C730.404 428.972 730 430.408 730 431.641C730 432.874 729.55 434.16 729 434.5C728.45 434.84 728 436.144 728 437.399C728 439.897 731.422 442 735.488 442C736.805 442 738.16 442.45 738.5 443C738.84 443.55 740.19 444 741.5 444C742.81 444 744.16 444.45 744.5 445C745.879 447.232 751.58 446.048 754.563 442.911C757.169 440.169 761.935 437 763.45 437C764.747 437 763.907 445.832 762.5 447C761.675 447.685 761 449.029 761 449.988C761 450.946 760.1 452.874 759 454.273C757.9 455.671 757 457.463 757 458.254C757 462.266 750.205 470.863 748.074 469.546C746.543 468.6 746.746 465.391 748.559 461.887C749.416 460.229 749.978 457.447 749.809 455.704C749.509 452.628 749.293 452.494 742.5 451.168C731.203 448.963 722 448.556 722 450.263C722 451.048 721.1 452.505 720 453.5C718.9 454.495 718 455.845 718 456.5C718 457.155 717.1 458.505 716 459.5C714.9 460.495 714 462.339 714 463.596C714 464.853 713.565 466.151 713.033 466.479C712.502 466.808 710.858 469.422 709.38 472.288C707.902 475.155 705.615 479.601 704.298 482.168C702.981 484.735 701.25 487.378 700.452 488.04C698.691 489.501 698.555 493.155 700.2 494.8C700.86 495.46 702.83 496 704.578 496C706.325 496 708.308 496.666 708.983 497.479C711.069 499.994 716.117 502 720.356 502C723.555 502 725.097 501.329 727.702 498.804C729.516 497.046 731 495.03 731 494.323C731 492.814 735.318 491.524 737.528 492.372C738.871 492.888 738.824 493.428 737.154 496.73C736.105 498.804 734.314 502.564 733.173 505.086C732.032 507.609 730.402 510.252 729.55 510.959C728.697 511.666 728 512.733 728 513.33C728 514.698 720.934 522 719.612 522C719.071 522 717.626 522.942 716.4 524.094C714.889 525.513 713.498 525.975 712.085 525.527C709.619 524.744 709.386 522.755 711.55 520.959C713.565 519.286 717.243 511.202 716.52 510.032C715.295 508.051 698.891 501 695.505 501C692.976 501 686.953 507.146 683 513.762C681.625 516.063 679.938 517.958 679.25 517.973C678.563 517.988 678 518.573 678 519.273C678 519.974 674.417 524.109 670.038 528.462C661.355 537.094 659.588 540.782 662.561 544.067C663.523 545.13 664.845 546 665.5 546C666.155 546 667.505 546.9 668.5 548C669.495 549.1 670.845 550 671.5 550C672.155 550 673.505 550.9 674.5 552C676.909 554.662 681.755 554.579 684.686 551.826C685.958 550.63 687 549.125 687 548.481C687 547.837 687.826 546.563 688.835 545.649C690.519 544.125 690.93 544.118 693.835 545.568C695.576 546.436 697 547.659 697 548.285C697 549.72 688.946 557.998 687.542 558.006C686.969 558.01 685.733 559.36 684.797 561.006C683.86 562.653 682.397 564 681.547 564C680.696 564 680 564.689 680 565.531C680 566.374 679.212 567.337 678.25 567.673C677.288 568.009 674.6 570.101 672.278 572.322C668.142 576.279 668.015 576.324 666.028 574.526C663.243 572.005 663.455 570.921 667.5 567C671.843 562.791 672.175 558.911 668.417 556.297C666.997 555.309 664.35 553.263 662.535 551.75C660.721 550.237 658.043 549 656.585 549C653.346 549 645.194 553.016 642.595 555.892C641.547 557.051 640.155 558 639.5 558C638.845 558 637.495 558.9 636.5 560C635.505 561.1 634.169 562 633.532 562C632.895 562 631.081 563.35 629.5 565C627.919 566.65 626.105 568 625.468 568C624.831 568 623.495 568.9 622.5 570C621.505 571.1 620.286 572 619.792 572C617.809 572 612 577.626 612 579.547C612 580.673 613.8 583.352 616 585.5C618.2 587.648 620 589.935 620 590.582C620 591.228 621.369 592.324 623.041 593.017C625.583 594.07 626.917 594.008 631.156 592.639C637.415 590.617 643 590.479 643 592.345C643 594.043 640.714 595.925 635 598.93C632.525 600.232 629.825 601.859 629 602.547C628.175 603.234 625.25 604.815 622.5 606.06C619.75 607.305 616.534 609.185 615.354 610.238C612.806 612.512 607.668 612.299 607.214 609.902C607.048 609.023 608.957 606.138 611.456 603.493C613.955 600.847 616 597.713 616 596.528C616 593.9 612.031 590.15 605.969 587.052L601.438 584.736L597.259 586.868C594.96 588.041 592.456 589 591.695 589C590.933 589 589.495 589.9 588.5 591C587.505 592.1 585.705 593 584.5 593C583.295 593 581.495 593.9 580.5 595C579.505 596.1 577.705 597 576.5 597C575.295 597 573.495 597.9 572.5 599C571.505 600.1 569.69 601 568.467 601C567.245 601 565.721 601.631 565.081 602.402C564.442 603.173 562.699 604.108 561.209 604.48C552.859 606.563 553.091 612.372 561.917 622.25C565.016 625.719 570.715 626.01 574.904 622.913C578.457 620.286 582.383 620.679 582.814 623.704C583.089 625.638 581.238 626.836 567.755 633.454C559.3 637.604 551.84 641 551.178 641C550.515 641 549.098 641.546 548.029 642.214C546.386 643.24 545.691 643.058 543.542 641.04C542.144 639.726 541.004 637.942 541.008 637.076C541.016 635.472 545.187 633 547.885 633C550.453 633 554 628.831 554 625.812C554 622.455 552.569 619.679 548.554 615.25C546.23 612.686 544.817 612 541.863 612C539.803 612 537.84 612.45 537.5 613C537.16 613.55 534.91 614 532.5 614C530.09 614 527.84 614.45 527.5 615C527.16 615.55 524.91 616 522.5 616C520.09 616 517.84 616.45 517.5 617C517.16 617.55 515.585 618 514 618C512.415 618 510.84 618.45 510.5 619C510.16 619.55 508.81 620 507.5 620C506.19 620 504.84 620.45 504.5 621C504.16 621.55 502.648 622 501.14 622C499.632 622 497.188 622.562 495.707 623.25C493.126 624.449 493.018 624.806 493.081 632C493.169 642.14 495.101 645.569 500.592 645.33C502.741 645.237 505.86 644.863 507.523 644.5C509.849 643.992 510.971 644.311 512.394 645.883C515.046 648.813 513.807 650.703 508.822 651.335C506.445 651.636 502.025 652.381 499 652.989C495.975 653.598 489 654.521 483.5 655.04C474.803 655.861 473.346 655.777 472.319 654.395C470.492 651.938 471.854 650 475.407 650C477.163 650 479.028 649.585 479.55 649.077C480.073 648.569 481.85 648.007 483.5 647.827C485.775 647.579 486.581 646.928 486.835 645.135C487.019 643.834 486.681 642.281 486.085 641.685C485.488 641.088 485 639.592 485 638.359C485 637.126 484.55 635.84 484 635.5C483.45 635.16 483 633.862 483 632.615C483 631.369 481.937 629.35 480.638 628.13C478.343 625.973 477.77 625.922 460.388 626.322C450.55 626.548 440.25 627.227 437.5 627.829C434.75 628.431 431.099 629.208 429.386 629.556C427.08 630.023 425.717 631.226 424.136 634.188C421.269 639.559 421.44 642.07 425.036 647.399C427.913 651.661 428.347 651.914 433.286 652.199C438.144 652.479 438.522 652.688 438.816 655.25L439.133 658H418.125C404.369 658 396.891 657.633 396.461 656.937C396.1 656.352 396.593 655.002 397.557 653.937C398.949 652.399 400.651 652 405.826 652C414.887 652 416 650.827 416 641.279C416 631.188 415.231 630 408.701 630C405.825 630 401.009 629.1 398 628C394.724 626.803 390.038 626 386.323 626C382.91 626 379.84 625.55 379.5 625C379.16 624.45 377.874 624 376.641 624C375.408 624 373.972 623.603 373.45 623.118C372.927 622.633 369.196 622.015 365.158 621.745L357.816 621.254L355.929 624.358C354.89 626.065 353.319 629.946 352.437 632.981C351.555 636.016 350.421 639.281 349.917 640.236C348.324 643.254 348.895 644 352.8 644C354.89 644 357.028 644.412 357.55 644.915C358.073 645.419 359.625 645.981 361 646.165C362.882 646.417 363.578 647.181 363.817 649.256C364.193 652.523 361.949 653.803 358.683 652.185C357.482 651.591 354.475 650.896 352 650.642C349.525 650.387 345.475 649.652 343 649.008C340.525 648.364 336.7 647.603 334.5 647.316C332.3 647.03 330.073 646.391 329.55 645.898C329.028 645.404 327.142 645 325.359 645C321.489 645 320.506 643.791 322.042 640.921C322.938 639.248 323.738 638.944 325.839 639.481C332.405 641.159 336.067 641.186 338.526 639.575C341.065 637.911 346 628.956 346 626.013C346 625.126 346.51 623.89 347.133 623.267C347.756 622.644 348.014 621.479 347.706 620.677C346.943 618.689 341.309 616 337.905 616C336.372 616 334.84 615.55 334.5 615C334.16 614.45 332.874 614 331.641 614C330.408 614 328.972 613.628 328.45 613.174C327.927 612.72 325.475 611.738 323 610.994C320.525 610.249 316.397 608.606 313.828 607.342C311.258 606.079 307.433 604.625 305.328 604.111C303.222 603.597 300.063 602.598 298.307 601.891C295.473 600.749 294.574 600.86 290.307 602.881C286.152 604.848 285.077 606.022 282.379 611.54C278.577 619.314 279.123 620.588 288.036 624.735C291.305 626.256 293.984 627.915 293.99 628.421C294.008 630.034 290.754 633 288.967 633C288.02 633 286.731 632.381 286.104 631.625C285.476 630.868 283.171 629.963 280.981 629.613C278.408 629.202 277 628.45 277 627.488C277 626.67 276.161 626 275.135 626C274.109 626 272.126 625.1 270.727 624C269.329 622.9 267.391 622 266.421 622C265.451 622 263.876 621.293 262.922 620.429C261.967 619.565 258.781 617.616 255.843 616.097C248.628 612.369 248.815 610.587 256.461 610.194C259.746 610.025 263.41 610.417 264.624 611.066C266.464 612.051 267.538 611.853 271.136 609.868C273.506 608.561 275.948 606.484 276.561 605.252C277.175 604.021 278.425 602.188 279.339 601.178C281.421 598.878 281.434 597.605 279.396 595.914C278.514 595.181 277.395 593.54 276.911 592.265C276.426 590.991 275.236 589.667 274.265 589.322C273.294 588.978 271.709 588.017 270.743 587.187C268.759 585.482 267.33 584.609 260.389 580.858C257.7 579.405 254.643 577.268 253.595 576.108C252.547 574.949 251.219 574 250.643 574C250.067 574 248.182 572.631 246.456 570.957C243.715 568.3 242.541 567.892 237.214 567.745L231.112 567.576L224.642 573.788C221.084 577.205 217.684 580 217.087 580C216.489 580 216 580.856 216 581.903C216 583.1 218.039 585.159 221.5 587.456C224.525 589.464 227 591.533 227 592.053C227 592.574 225.288 593 223.196 593C218.789 593 210.391 589.11 206.995 585.495C205.706 584.123 204.153 583 203.544 583C202.03 583 191 571.745 191 570.2C191 569.516 192.098 568.457 193.441 567.845C195.53 566.893 196.538 567.168 200.445 569.756C206.455 573.736 211.001 574.557 215.222 572.423C219.101 570.462 223 567.062 223 565.64C223 565.084 223.991 563.574 225.203 562.284L227.406 559.939L216.838 549.22C211.025 543.324 205.998 537.712 205.666 536.75C205.334 535.788 204.374 535 203.531 535C202.689 535 202 534.314 202 533.475C202 532.637 200.988 531.554 199.75 531.069C198.512 530.585 195.721 528.346 193.547 526.094C189.027 521.412 186.293 520.959 180.345 523.903C178.23 524.949 174.25 526.714 171.5 527.824C165.311 530.323 164.928 532.039 169.142 538.401C172.133 542.916 172.26 543.444 170.931 545.801C170.144 547.197 168.947 548.523 168.271 548.746C166.865 549.211 156 539.305 156 537.558C156 536.924 154.2 534.648 152 532.5C149.8 530.352 148 528.041 148 527.364C148 526.688 147.1 525.849 146 525.5C144.9 525.151 144 524.404 144 523.84C144 523.277 143.066 521.628 141.925 520.178L139.85 517.54L142.036 515.77C145.248 513.169 147.581 513.595 150.135 517.25C153.152 521.567 157.147 525.019 159 524.908C159.825 524.859 162.75 523.531 165.5 521.957C168.25 520.382 172.606 517.957 175.179 516.566C177.753 515.176 180.103 513.643 180.401 513.16C181.068 512.082 176.454 502.622 174.452 500.96C173.653 500.297 173 499.205 173 498.533C173 497.86 172.1 496.495 171 495.5C169.9 494.505 169 492.705 169 491.5C169 490.295 168.1 488.495 167 487.5C165.9 486.505 165 485.305 165 484.835C165 484.364 163.425 481.739 161.5 479C159.575 476.261 158 473.478 158 472.814C158 472.15 156.814 469.896 155.364 467.804C153.372 464.929 152.043 464 149.923 464C148.38 464 146.84 464.45 146.5 465C146.16 465.55 145.125 466 144.2 466C143.275 466 139.273 467.603 135.306 469.563C128.113 473.118 125.638 476.038 127.901 478.301C128.505 478.905 129 482.01 129 485.2C129 490.618 128.845 491 126.655 491C123.257 491 119 485.202 119 480.573C119 479.223 118.539 477.833 117.975 477.485C117.411 477.136 115.386 473.746 113.475 469.951C109.191 461.443 108.582 454 112.171 454C114.621 454 118 456.657 118 458.582C118 460.806 123.114 464 126.675 464C128.547 464 131.844 463.1 134 462C136.156 460.9 138.977 460 140.269 460C144.248 460 146.397 457.74 145.586 454.406C145.197 452.808 144.615 450.158 144.292 448.518C143.969 446.877 142.871 444.051 141.852 442.237C140.834 440.423 139.984 437.715 139.965 436.22C139.945 434.724 139.286 432.375 138.5 431C137.714 429.625 137.055 427.407 137.035 426.071C136.959 420.841 133.038 411.324 129.647 408.138C127.487 406.108 126.471 405.877 121.832 406.358C112.144 407.361 107.512 408.193 106.55 409.102C106.028 409.596 104.565 410 103.3 410C100.609 410 100.124 413.028 102.5 415C103.399 415.746 104 417.933 104 420.462C104 424.01 103.596 424.863 101.453 425.839C100.052 426.478 98.365 426.996 97.703 426.992C96.337 426.983 94 422.482 94 419.86C94 418.902 93.55 417.84 93 417.5C92.45 417.16 92 414.46 92 411.5C92 408.54 91.55 405.84 91 405.5C90.45 405.16 89.993 403.446 89.985 401.691C89.977 399.936 89.321 396.7 88.529 394.5C86.52 388.924 86.656 387.478 89.305 386.271C93.133 384.527 98.844 389.058 98.965 393.936C99.065 397.986 107.593 402.086 109.5 399C109.84 398.45 112.702 398 115.86 398C122.942 398 126.982 396.298 126.992 393.309C126.996 392.104 126.55 390.84 126 390.5C125.45 390.16 125 386.335 125 382C125 377.665 124.55 373.84 124 373.5C123.45 373.16 123 370.01 123 366.5C123 362.99 122.55 359.84 122 359.5C121.45 359.16 121 356.073 121 352.64C121 349.207 120.438 345.188 119.75 343.707L118.5 341.016L105.75 341.008L93 341V346.671C93 350.564 92.477 352.921 91.331 354.187C89.714 355.974 89.59 355.963 87.331 353.841C85.059 351.707 85 351.199 85 333.885C85 323.014 85.392 315.876 86.009 315.494C86.564 315.152 87.914 315.155 89.009 315.503C90.761 316.059 91 317.024 91 323.532C91 332.777 91.337 333 105.299 333C114.338 333 116.082 332.723 118.365 330.927C120.905 328.93 121 328.485 121 318.627C121 312.954 121.458 307.942 122.029 307.371C122.665 306.735 122.951 300.852 122.779 291.934C122.517 278.406 122.378 277.506 120.5 277.211C119.4 277.038 117.6 276.506 116.5 276.027C115.4 275.549 111.098 274.91 106.94 274.608L99.381 274.058L98.19 277.35C97.536 279.161 97 281.522 97 282.598C97 288.44 90.41 291.081 87.378 286.454C85.639 283.8 85.654 283.676 89.068 272.429C89.58 270.74 90 267.054 90 264.238C90 261.422 90.45 258.84 91 258.5C91.55 258.16 92 256.366 92 254.514C92 251.735 92.551 250.872 95.154 249.573C96.888 248.708 98.688 248 99.154 248C99.619 248 100 252.064 100 257.031C100 264.76 100.252 266.141 101.75 266.604C102.712 266.902 104.281 267.563 105.236 268.073C106.191 268.583 109.202 269 111.927 269C114.652 269 117.16 269.45 117.5 270C119.526 273.278 129 266.986 129 262.363C129 261.128 129.45 259.84 130 259.5C130.55 259.16 131 257.81 131 256.5C131 255.19 131.45 253.84 132 253.5C132.55 253.16 133 251.643 133 250.129C133 248.615 133.9 245.513 135 243.236C136.1 240.959 137 238.452 137 237.663C137 235.407 140.019 225.872 142.021 221.806C144.18 217.42 143.864 217.05 135.862 214.606C132.761 213.659 129.386 212.25 128.362 211.474C127.338 210.698 124.657 210.049 122.405 210.032C118.195 209.999 115.907 211.589 113.589 216.16C111.986 219.321 107.684 222.2 105.701 221.439C103.454 220.576 103.552 217.798 106 213C107.1 210.844 108 208.442 108 207.662C108 206.883 108.646 205.709 109.436 205.053C110.225 204.398 111.154 202.574 111.5 201C111.846 199.426 112.775 197.602 113.564 196.947C114.354 196.291 115 194.485 115 192.933C115 191.381 116.037 188.906 117.304 187.433C119.245 185.177 120.109 184.865 122.792 185.454C124.544 185.839 126.232 186.567 126.544 187.071C126.856 187.576 125.961 190.278 124.555 193.076C123.15 195.875 122 198.937 122 199.882C122 202.043 123.906 204 126.012 204C126.899 204 129.487 204.9 131.764 206C137.923 208.976 144.013 208.678 147.11 205.25C150.543 201.45 157.169 191.572 160.621 185.111C164.655 177.561 165.452 176.263 167.339 174.178C168.252 173.169 169 171.885 169 171.326C169 170.767 169.9 169.495 171 168.5C173.723 166.036 173.795 160 171.102 160C170.057 160 166.637 158.65 163.5 157C160.363 155.35 156.969 154 155.957 154C154.946 154 153.84 153.55 153.5 153C151.85 150.33 146.312 153.627 144.68 158.25C144.341 159.213 143.429 160 142.654 160C141.879 160 140.685 160.675 140 161.5C139.315 162.325 138.36 163 137.878 163C136.39 163 136.909 156.32 138.5 155C139.325 154.315 140 153.205 140 152.533C140 151.86 140.9 150.495 142 149.5C143.1 148.505 144 147.169 144 146.532C144 145.895 145.35 144.081 147 142.5C148.65 140.919 150 139.105 150 138.468C150 137.831 150.9 136.495 152 135.5C153.1 134.505 154 133.157 154 132.506C154 130.904 158.408 129 162.114 129C164.781 129 165.055 129.264 164.457 131.25C164.084 132.487 162.529 134.85 161 136.5C156.809 141.024 156.457 143.366 159.511 146.42C162.349 149.259 167.688 152.218 173.657 154.262C176.684 155.298 178.007 155.323 179.889 154.377C182.876 152.876 198 137.928 198 136.476C198 135.888 199.8 133.648 202 131.5C204.2 129.352 206 127.099 206 126.493C206 125.888 207.575 123.866 209.5 122C211.425 120.134 213 117.696 213 116.581C213 114.036 201.22 102 198.729 102C196.226 102 191.048 104.716 187.849 107.707C183.158 112.092 179.215 108.945 182.099 103.119C183.757 99.77 191.062 92 192.553 92C193.178 92 194.505 91.1 195.5 90C196.495 88.9 197.732 88 198.247 88C198.763 88 200.329 87.1 201.727 86C204.34 83.945 208.52 83.409 210.774 84.839C211.747 85.456 211.569 86.08 210.024 87.479C208.911 88.486 208 89.899 208 90.62C208 91.34 207.1 92.411 206 93C204.9 93.589 204 94.772 204 95.629C204 96.486 204.9 97.423 206 97.71C207.1 97.998 208 98.87 208 99.648C208 100.426 208.788 101.35 209.75 101.7C210.712 102.051 212.971 103.605 214.768 105.154C221.122 110.63 225.686 109.953 233.058 102.441C235.455 99.998 237.928 98 238.553 98C239.178 98 240.505 97.1 241.5 96C242.495 94.9 243.831 94 244.468 94C245.105 94 246.919 92.65 248.5 91C250.081 89.35 251.895 88 252.532 88C253.169 88 254.505 87.1 255.5 86C256.495 84.9 257.708 84 258.195 84C260.148 84 265 79.503 265 77.694C265 76.632 263.763 74.279 262.25 72.465C260.737 70.65 258.691 68.003 257.703 66.583C256.148 64.347 255.182 64 250.512 64C247.545 64 244.84 64.45 244.5 65C243.764 66.191 238.332 66.346 237.621 65.196C237.348 64.753 239.143 62.841 241.61 60.946C244.077 59.051 247.488 56.394 249.189 55.043C255.218 50.252 260.994 48 267.253 48C274.704 48 274.51 49.356 266.439 53.686C263.172 55.438 260.526 57.238 260.557 57.686C260.685 59.509 262.893 63.666 264.396 64.914C265.278 65.646 266 66.865 266 67.622C266 68.38 266.605 69 267.345 69C268.085 69 269.505 69.9 270.5 71C273.39 74.193 277.77 73.463 288.5 68C293.901 65.25 298.91 63 299.63 63C300.35 63 302.415 62.173 304.22 61.161C306.024 60.15 308.625 59.062 310 58.743C315.015 57.579 320.179 55.265 322.143 53.301C323.926 51.518 324.029 50.823 323.051 47.19C322.444 44.936 320.808 41.737 319.416 40.082C316.986 37.195 316.518 37.062 307.798 36.787C300.56 36.558 298.495 36.156 297.648 34.809C296.264 32.608 299.338 29 302.596 29C303.853 29 305.16 28.55 305.5 28C305.84 27.45 307.428 27 309.029 27C310.629 27 313.542 26.1 315.5 25C317.458 23.9 319.965 23 321.07 23C322.175 23 324.89 22.076 327.102 20.948C332.183 18.356 340.299 18.535 340.814 21.25C341.057 22.526 340.491 23 338.728 23C337.398 23 335.495 23.9 334.5 25C333.505 26.1 332.197 27.014 331.595 27.032C330.993 27.049 329.2 28.206 327.612 29.602L324.724 32.141L327.059 37.321C328.342 40.169 330.54 43.765 331.942 45.311C334.464 48.092 334.592 48.117 343.996 47.655C354.798 47.125 360.767 46.185 361.568 44.89C361.871 44.4 364.54 44 367.5 44C370.46 44 373.16 43.55 373.5 43C373.84 42.45 375.126 42 376.359 42C377.592 42 379.028 41.58 379.55 41.067C380.072 40.554 382.3 39.991 384.5 39.817L388.5 39.5L388.789 30.757C388.96 25.562 388.616 21.15 387.939 19.886C386.862 17.874 386.316 17.796 377.923 18.452C368.057 19.224 366.481 18.837 367.992 16.015C369.875 12.497 374.755 11.001 384.404 10.985C389.407 10.976 394.175 10.533 395 9.99998C397.58 8.33298 408.113 8.79198 410.179 10.662ZM427.5 80C425.85 80.42 422.694 80.817 420.486 80.882C418.278 80.947 414.009 81.9 411 83C407.991 84.1 404.728 85 403.751 85C402.773 85 401.191 85.413 400.236 85.918C399.281 86.423 396.366 87.774 393.758 88.919C387.942 91.474 376.07 99.016 370.198 103.886C364.365 108.723 360.787 115.078 349.423 140.783C335.969 171.214 334.033 175.403 329.067 184.846C324.106 194.278 316.441 203.254 311.097 205.89C306.005 208.401 284.33 216.32 272.5 219.991C253.161 225.992 239 231.282 239 232.505C239 233.927 267.154 261.879 280.5 273.707C299.748 290.765 305.648 299.315 309.001 315.006C312.356 330.703 311.023 344.293 304.688 359C303.484 361.793 278.244 411.4 252.819 460.942C250.719 465.035 249 469.438 249 470.727C249 476.698 256.043 481.675 262.861 480.523C269.129 479.465 278.652 468.277 286.972 452.198C291.578 443.297 302.645 425.373 312.444 410.943C323.747 394.298 329.421 389.872 348.77 382.604C355.765 379.977 368.601 380.483 381.529 383.897C418.338 393.615 433.85 398.657 451.373 406.598C469.679 414.895 487.21 427.486 493.644 436.96C494.967 438.907 497.389 442.3 499.027 444.5C502.209 448.775 507.35 459.021 510.817 468C515.23 479.428 521.939 504.861 523.014 514.234C523.628 519.588 524.587 525.438 525.145 527.234C525.703 529.03 526.489 541.3 526.89 554.5C527.672 580.192 528.407 584.07 533.117 587.369C536.403 589.671 540.075 589.396 543.92 586.559C547.673 583.79 549.343 581.607 550.47 578C551.581 574.44 552.665 556.211 553.889 520.5C556.151 454.499 557.93 441.839 569.7 408.012C573.894 395.957 576.935 389.411 589.839 364.658C593.182 358.245 593.314 357.648 591.939 355.158C589.568 350.863 584.522 349.029 578 350.089C574.975 350.58 560.8 351.263 546.5 351.605L520.5 352.227L509.197 349.17C502.98 347.488 490.83 342.977 482.197 339.146C473.564 335.315 463.8 331.056 460.5 329.68C441.448 321.74 396.767 298.138 388.616 291.709C379.518 284.532 376.716 280.182 375.539 271.408C374.711 265.235 376.391 259.536 382.592 247.485C386.346 240.19 403.163 214.408 405.087 213C405.462 212.725 409.879 206.988 414.903 200.25C427.589 183.235 438.163 175.411 456 169.842C462.308 167.872 465.645 167.5 477 167.5C490.919 167.5 494.073 168.042 507.866 172.8C518.571 176.494 545.925 193.849 552.924 201.389C556.333 205.061 560.476 204.914 562.474 201.05C564.524 197.087 564.447 196.437 561.122 189.5C558.927 184.921 555.755 181.132 547.724 173.5C531.718 158.29 529.4 156.541 517.289 150.537C494.685 139.332 485.602 137.106 461.876 136.961C443.763 136.85 428.826 140.335 416.086 147.643C413.564 149.09 410.31 150.897 408.855 151.658C407.401 152.419 405.658 153.707 404.983 154.521C404.308 155.334 403.401 156 402.968 156C401.804 156 389 168.119 389 169.221C389 169.739 387.506 172.039 385.679 174.332C382.373 178.48 372 195.432 372 196.685C372 197.047 371.387 198.053 370.638 198.921C369.889 199.79 366.69 205.45 363.529 211.5C356.622 224.718 355.119 226.498 351.609 225.617C346.451 224.322 344.447 215.884 347.855 209.807C354.802 197.419 360.162 188.353 364.963 180.869C369.925 173.133 376.245 162.549 385.694 146.147C392.651 134.07 408.129 120.093 420.5 114.714C426.8 111.975 445.405 109 456.232 109C488.299 109 505.85 115.548 538.603 139.732C552.522 150.009 574.307 167.668 580.922 174.035C591.272 183.998 592.368 184.644 595.465 182.615C602.365 178.094 600.623 173.63 584.842 155.39C578.604 148.179 570.276 138.504 566.335 133.89C558.417 124.619 535.633 102 534.212 102C533.716 102 532.495 101.1 531.5 100C530.505 98.9 529.345 98 528.923 98C528.502 98 525.137 95.975 521.446 93.5C517.755 91.025 513.964 89 513.023 89C512.081 89 510.495 88.1 509.5 87C508.505 85.9 506.691 85 505.471 85C504.25 85 501.282 84.302 498.876 83.448C490.394 80.439 475.268 79.033 452.5 79.137C440.4 79.192 429.15 79.58 427.5 80ZM785.024 509.074C782.79 513.693 781.378 517.865 781.724 518.824C782.326 520.492 783.683 522.126 795.912 535.919C799.439 539.897 804.54 545.93 807.247 549.326C809.953 552.722 817.193 560.838 823.334 567.361C829.475 573.885 834.898 579.96 835.384 580.861C837.087 584.019 841.39 588 843.101 588C844.184 588 846.164 585.611 848.414 581.588C850.386 578.061 852 574.912 852 574.59C852 574.269 850.444 572.284 848.543 570.179L845.086 566.353L848.689 560.677C850.67 557.554 852.84 555 853.511 555C854.182 555 855.911 555.929 857.354 557.064L859.977 559.127L862.593 556.314C865.989 552.661 870.037 544.667 869.173 543.319C868.803 542.741 866.7 541.271 864.5 540.051C862.3 538.832 856.225 535.441 851 532.516C845.775 529.59 837 524.853 831.5 521.988C826 519.124 821.05 516.419 820.5 515.977C819.95 515.535 816.35 513.514 812.5 511.484C808.65 509.455 804.825 507.218 804 506.514C801.223 504.143 794.1 501 791.504 501C789.271 501 788.408 502.076 785.024 509.074ZM55.5 505.169C49.667 507.134 46.442 508.9 44.061 511.435C42.736 512.846 41.222 514 40.697 514C40.172 514 38.06 515.462 36.003 517.25C33.947 519.038 29.411 522.75 25.923 525.5C10.313 537.807 5.93699 542.983 1.99499 553.794C-0.148014 559.67 -0.21 560.462 1.053 565.793C2.849 573.37 6.774 579.379 12.665 583.567C17.07 586.699 18.114 587 24.566 587C31.257 587 31.928 586.784 37 583C39.949 580.8 42.73 579 43.181 579C45.012 579 43.807 574.179 40.75 569.271C37.202 563.574 35.78 563.043 32 566C30.471 567.196 27.922 567.964 25.439 567.978C20.029 568.007 17.003 565.225 16.991 560.211C16.983 556.824 17.79 555.736 26.228 547.75C31.313 542.938 35.844 539 36.297 539C36.749 539 39.455 536.803 42.31 534.117C52.614 524.423 60.931 520.813 64.128 524.646C68.697 530.124 68.03 535.107 61.869 541.538C57.521 546.076 57.354 546.628 59.583 549.092C60.454 550.054 61.969 552.339 62.95 554.171C65.663 559.235 67.514 558.913 73.993 552.251C80.522 545.537 83 539.299 83 529.578C83 519.199 74.218 507.399 64.807 505.131C59.406 503.829 59.476 503.829 55.5 505.169ZM816.921 532.372C817.79 533.126 821.2 535.201 824.5 536.981C834.455 542.353 836.986 544.322 836.993 546.703C837.002 549.467 834.924 554.144 833.851 553.776C832.683 553.376 816.083 535.023 814.916 532.842C813.751 530.667 814.702 530.443 816.921 532.372ZM747.877 562.501C742.479 565.313 738.466 569.738 735.729 575.899C734.124 579.512 733.848 581.925 734.184 589.399C734.529 597.089 735.019 599.223 737.341 603.164C741.687 610.539 747.936 615.718 753.495 616.552C760.565 617.612 770.033 616.534 774.74 614.133C777.475 612.737 780.782 612 784.305 612C791.086 612 793 613.814 793 620.24C793 624.129 792.535 625.214 789.923 627.411C785.735 630.935 783.693 630.68 778.616 626C776.229 623.8 773.928 622 773.503 622C772.518 622 768 626.841 768 627.897C768 628.333 767.1 629.505 766 630.5C762.995 633.22 763.529 635.112 768.75 640.241C774.56 645.949 779.235 648 786.437 648C795.161 648 802.854 642.352 807.416 632.597C809.476 628.191 810.09 616.069 808.531 610.579C807.147 605.707 802.181 599.264 797.238 595.928C793.076 593.119 791.73 592.759 785.03 592.661C778.916 592.571 776.789 592.969 773.72 594.775C771.64 595.999 769.079 597 768.029 597C766.978 597 765.872 597.398 765.571 597.885C764.597 599.461 758.572 599.793 755.88 598.419C754.437 597.684 752.297 595.036 751.12 592.532C749.166 588.374 749.104 587.687 750.406 584.571C753.349 577.528 759.38 577.913 766.329 585.588L770.592 590.297L774.3 587.041C776.339 585.251 778.712 582.302 779.572 580.489C781.431 576.572 780.775 575.066 774.404 568.635C765.595 559.743 756.991 557.754 747.877 562.501ZM110.118 574.25C107.879 576.038 104.2 578.85 101.942 580.5C99.684 582.15 95.911 585.188 93.557 587.25C91.202 589.313 88.848 591 88.325 591C87.802 591 86.081 592.35 84.5 594C82.919 595.65 81.105 597 80.468 597C79.831 597 78.453 597.954 77.405 599.119C76.357 600.285 70.55 605.001 64.5 609.6C50.441 620.286 47 623.502 47 625.957C47 627.048 49.002 630.09 51.448 632.717L55.896 637.493L59.254 634.239L62.611 630.985L65.306 633.797C66.787 635.344 68 637.01 68 637.5C68 637.99 69.22 639.664 70.71 641.219C73.252 643.872 73.337 644.249 72.085 647.274C69.24 654.144 69.529 656.177 73.956 660.478C78.308 664.706 80.246 664.688 82.5 660.402C83.05 659.356 85.117 656.025 87.094 653C91.782 645.825 94.369 641.533 97.405 635.898C98.768 633.366 103.285 626.251 107.442 620.086C111.599 613.921 115 608.51 115 608.061C115 607.612 115.68 606.68 116.512 605.99C117.344 605.3 119.384 601.887 121.045 598.406C122.706 594.926 124.472 591.826 124.969 591.519C125.466 591.212 126.584 589.536 127.453 587.794C128.997 584.699 128.965 584.559 126.016 581.517C124.357 579.805 123 578.001 123 577.507C123 575.892 117.668 571 115.908 571C114.962 571 112.357 572.462 110.118 574.25ZM98.059 605.75C95.045 609.711 85.343 624.468 83.735 627.536L82.368 630.144L78.717 626.385C75.719 623.299 75.283 622.361 76.283 621.143C78.742 618.148 98.194 603.183 99.826 603.03C100.005 603.014 99.21 604.237 98.059 605.75ZM690.403 621C687.26 623.75 684.417 626 684.085 626C683.753 626 682.939 626.868 682.276 627.929C681.293 629.503 681.502 631.115 683.411 636.679C685.717 643.403 686.341 644.931 691.373 656.188C692.771 659.316 695.924 666.741 698.379 672.688C700.834 678.635 704.228 686.579 705.922 690.343C707.615 694.107 709 697.604 709 698.114C709 700.649 717.181 716 718.532 716C719.364 716 722.097 714.108 724.606 711.796C729.358 707.415 729.356 707.424 727.484 699.958C726.928 697.742 727.606 696.819 732.757 692.772L738.667 688.129L741.759 691.22L744.85 694.312L749.675 690.267C752.329 688.043 755.373 685.256 756.439 684.074L758.378 681.925L750.87 674.212C746.741 669.971 741.861 664.7 740.026 662.5C735.896 657.55 718.94 639.146 713.402 633.602C711.147 631.346 706.705 626.462 703.529 622.75C700.354 619.038 697.387 616 696.936 616C696.485 616 693.545 618.25 690.403 621ZM160.5 621.935C156.501 622.909 151.025 625.754 148.228 628.312C146.185 630.181 143.351 635.431 140.141 643.297C138 648.544 139.417 662.198 142.497 666C143.165 666.825 145.214 671.808 147.05 677.074C150.032 685.623 150.254 686.973 149.127 689.694C146.871 695.14 139.054 696.816 135.174 692.686C132.212 689.532 132.115 680.941 135 677.273C136.1 675.874 137 674.123 137 673.38C137 672.071 128.325 662.984 127.105 663.015C125.245 663.062 121.781 667.774 118.767 674.359C115.045 682.489 116.978 696.072 122.935 703.644C128.492 710.709 140.056 715.346 146.283 713.007C156.169 709.293 158.238 707.47 162.144 699.032C164.742 693.418 165.091 691.666 164.738 686.022C164.365 680.047 160.991 668.839 158.877 666.55C158.395 666.028 158 664.841 158 663.914C158 662.987 157.328 660.94 156.506 659.364C155.685 657.789 155.01 654.397 155.006 651.827C155.001 647.938 155.516 646.638 158.077 644.077C162.034 640.119 167.176 639.813 169.523 643.394C173.184 648.983 172.348 654.552 166.702 662.19L164.713 664.88L168.994 669.993C172.676 674.39 173.71 675.064 176.381 674.803C178.869 674.56 179.891 673.704 181.511 670.5C182.625 668.3 184.391 665.225 185.438 663.666C189.166 658.112 188.602 640.783 184.521 635.483C183.681 634.392 181.686 631.647 180.087 629.383C175.41 622.759 168.269 620.044 160.5 621.935ZM710.167 654.969C710.35 655.502 712.975 658.548 716 661.739C719.025 664.93 722.824 668.996 724.442 670.775L727.383 674.009L724.017 677.482C721.438 680.144 720.341 680.698 719.326 679.855C718.596 679.25 718 678.227 718 677.582C718 676.937 716.035 672.38 713.632 667.455C708.561 657.057 707.474 654 708.849 654C709.391 654 709.983 654.436 710.167 654.969ZM638.718 658.092C630.332 660.066 625.728 663.997 621.267 672.99C619.111 677.334 618.454 680.265 618.16 686.844C617.925 692.095 618.197 695.597 618.894 696.294C619.502 696.902 620 698.345 620 699.5C620 700.655 620.378 702.028 620.84 702.55C621.302 703.073 622.258 705.075 622.966 707C623.673 708.925 625.995 713.944 628.126 718.153C630.257 722.362 632 726.376 632 727.074C632 727.772 632.595 729.053 633.322 729.921C634.05 730.79 635.244 733.406 635.978 735.736C636.711 738.065 638.141 740.722 639.155 741.641C640.17 742.559 641 743.915 641 744.655C641 745.395 641.427 746 641.95 746C642.472 746 644.9 747.35 647.345 749C652.919 752.762 660.863 753.166 666.542 749.976C671.454 747.217 676.226 743.807 677.704 742C679.618 739.659 683.66 730.838 684.431 727.32C685.246 723.601 683.531 714.009 681.154 709C679.288 705.068 675.244 703.796 673.042 706.449C672.334 707.302 671.248 708.016 670.628 708.036C670.007 708.056 668.165 709.163 666.534 710.495L663.569 712.919L665.702 717.967C669.285 726.449 666.311 731.93 657.906 732.336L654.5 732.5L646.258 716C641.726 706.925 637.098 696.592 635.975 693.038C632.757 682.849 634.988 677 642.095 677C645.404 677 646.407 677.623 650.055 681.95L654.229 686.9L658.965 684.423C661.57 683.061 664.65 680.937 665.81 679.703L667.918 677.459L663.709 671.448C661.394 668.141 657.533 663.538 655.129 661.218C651.361 657.581 650.19 657.014 646.629 657.1C644.358 657.156 640.798 657.602 638.718 658.092ZM218 661.328C216.244 662.7 212 670.597 212 672.493C212 673.21 210.65 676.363 209 679.5C207.35 682.637 206 686.002 206 686.979C206 687.956 205.342 689.301 204.539 689.968C203.735 690.635 202.802 692.152 202.466 693.34C201.121 698.09 196.648 708 195.85 708C195.382 708 195 708.886 195 709.97C195 711.053 194.1 713.542 193 715.5C191.9 717.458 191 719.527 191 720.097C191 720.667 188.863 725.491 186.25 730.817C183.637 736.143 181.366 740.791 181.201 741.146C180.688 742.256 194.596 750.918 195.285 749.918C196.658 747.925 202 736.45 202 735.494C202 734.821 202.8 733.197 203.777 731.885C204.755 730.573 206.147 727.7 206.87 725.5C209.143 718.589 210.45 716 211.666 716C212.596 716 225.281 723.947 226.841 725.507C227.043 725.71 226.487 727.323 225.604 729.091C224.722 730.86 224 732.852 224 733.519C224 734.185 223.1 735.874 222 737.273C220.9 738.671 220.004 740.419 220.008 741.158C220.013 741.896 218.128 746.252 215.819 750.838C211.181 760.052 211.261 761.077 216.863 764.207C218.619 765.188 221.105 766.678 222.387 767.518C224.255 768.742 224.918 768.793 225.725 767.773C227.174 765.941 234.369 750.623 237.359 743C238.762 739.425 242.224 731.325 245.052 725C247.881 718.675 251.319 710.817 252.692 707.538C254.065 704.258 256.677 698.619 258.497 695.007C261.273 689.493 261.62 688.093 260.652 686.29C259.266 683.705 251.614 678 249.534 678C248.207 678 244 685.469 244 687.823C244 688.336 243.325 689.315 242.5 690C241.675 690.685 241 691.969 241 692.853C241 696.016 234.545 707.949 232.819 707.975C230.037 708.017 219.023 700.674 219.011 698.769C219.001 697.222 221.569 691.313 229.743 674.081L232.313 668.661L229.536 666.447C223.928 661.975 219.619 660.064 218 661.328ZM280.283 695.25C279.703 696.487 278.754 699.3 278.174 701.5C277.594 703.7 276.418 707.835 275.56 710.688C274.702 713.541 273.98 716.691 273.956 717.688C273.932 718.685 273.223 721.3 272.38 723.5C271.537 725.7 270.434 729.475 269.928 731.888C269.423 734.301 268.332 737.633 267.504 739.292C266.677 740.95 266 743.444 266 744.833C266 747.183 264.795 751.772 262.937 756.5C262.504 757.6 261.938 759.625 261.678 761C261.418 762.375 260.239 767.042 259.057 771.371C257.876 775.7 257.042 779.356 257.204 779.495C257.367 779.633 260.464 781.363 264.086 783.338C271.095 787.159 273 786.95 273 782.359C273 781.126 273.45 779.84 274 779.5C274.55 779.16 275 777.81 275 776.5C275 775.19 275.45 773.84 276 773.5C276.55 773.16 277 771.122 277 768.971C277 766.821 277.9 763.458 279 761.5C280.1 759.542 281.007 756.715 281.015 755.22C281.031 752.406 283.11 745.556 284.315 744.352C284.692 743.975 285 742.193 285 740.392C285 738.591 285.398 736.872 285.885 736.571C286.371 736.271 287.015 734.781 287.316 733.262C287.617 731.743 288.272 728.925 288.773 727L289.684 723.5L290.896 728C293.628 738.145 295.746 743.516 297.118 743.782C297.917 743.937 301.799 741.587 305.744 738.561C309.689 735.534 313.099 733.382 313.321 733.779C313.543 734.175 311.318 742.825 308.377 753C305.437 763.175 302.349 773.975 301.517 777C300.684 780.025 299.318 784.975 298.48 788L296.956 793.5L299.728 795.745C301.253 796.98 303.085 797.992 303.8 797.995C304.514 797.998 306.367 798.656 307.917 799.457C311.754 801.442 313.248 800.038 315.32 792.5C316.227 789.2 317.697 784.025 318.587 781C319.477 777.975 320.579 773.925 321.036 772C321.493 770.075 322.377 766.7 323 764.5C323.623 762.3 324.51 758.925 324.97 757C327.033 748.373 329.18 741.423 330.052 740.55C330.573 740.028 331.007 738.227 331.015 736.55C331.023 734.873 331.761 731.475 332.656 729C333.551 726.525 334.609 722.7 335.007 720.5C335.405 718.3 336.044 715.766 336.427 714.87C336.961 713.617 335.893 712.627 331.811 710.592C323.441 706.42 319.965 706.227 315.903 709.71C311.309 713.648 306.402 717 305.23 717C304.701 717 303.273 714.188 302.056 710.75C300.84 707.313 299.184 703.038 298.376 701.252C296.856 697.889 292.574 695 289.109 695C288.014 695 286.84 694.55 286.5 694C285.344 692.129 281.372 692.927 280.283 695.25ZM528 708.044C526.075 708.491 520.225 709.766 515 710.877C509.775 711.989 502.35 713.708 498.5 714.699C491.558 716.485 491.497 716.53 491.197 720.127C491.03 722.122 492.268 730.863 493.947 739.55C495.626 748.238 497 756.754 497 758.473C497 760.193 497.377 762.028 497.839 762.55C498.948 763.807 501 775.657 501 780.806C501 783.048 501.45 785.16 502 785.5C502.55 785.84 503 788.09 503 790.5C503 792.91 503.45 795.16 504 795.5C504.55 795.84 505 798.149 505 800.63C505 808.537 505.937 808.78 521.808 804.992C529.339 803.195 536.4 801.358 537.5 800.909C538.6 800.46 541.471 799.533 543.879 798.849L548.259 797.606L547.711 790.553C547.409 786.674 546.853 782.712 546.474 781.75C545.631 779.605 541.926 779.481 537.651 781.455C533.16 783.528 520.786 786.198 519.94 785.276C519.548 784.849 518.769 781.575 518.208 778C517.648 774.425 516.89 770.568 516.525 769.429C515.783 767.117 516.656 766.765 531.445 763.411C539.915 761.49 543.678 759.004 542.4 756.173C541.985 755.253 541.454 752.25 541.22 749.5C540.986 746.75 540.306 743.901 539.708 743.17C538.505 741.696 538.565 741.687 524.615 745.419C519.178 746.874 514.519 747.853 514.262 747.595C514.004 747.338 513.176 743.611 512.421 739.313C510.805 730.11 510.876 730 519.709 728.081C522.894 727.389 526.281 726.413 527.236 725.912C528.191 725.41 530.274 725 531.864 725C535.655 725 537.392 722.811 536.615 719.009C536.277 717.354 535.718 714.538 535.374 712.75C534.74 709.455 533.271 706.905 532.128 707.115C531.782 707.178 529.925 707.596 528 708.044ZM354.058 715.43C353.332 716.305 352.317 721.179 351.803 726.26C351.289 731.342 350.171 741.35 349.319 748.5C347.398 764.609 346.298 775.066 345.396 785.784C345.012 790.341 344.316 794.305 343.849 794.593C343.382 794.882 343 797.525 343 800.466V805.815L348.25 806.336C351.138 806.622 355.975 807.356 359 807.967C362.025 808.578 367.2 809.495 370.5 810.004C373.8 810.514 378.381 811.33 380.679 811.818C382.978 812.306 385.312 812.425 385.867 812.082C389.175 810.038 390.267 796.705 387.25 795.193C386.288 794.711 380.387 793.265 374.138 791.981L362.777 789.645L363.388 785.183C363.725 782.729 364 778.244 364 775.216V769.711L370.679 770.334C374.353 770.678 377.818 771.418 378.379 771.979C378.941 772.541 382.253 773 385.74 773H392.081L391.79 764.75L391.5 756.5L379.25 753.501L367 750.501L367.015 743.501C367.036 733.918 367.282 733.661 375.617 734.528C379.403 734.921 383.026 735.663 383.669 736.177C384.312 736.69 387.237 736.973 390.169 736.805L395.5 736.5L395.79 728.25L396.081 720L392.79 719.98C390.981 719.97 385.9 719.257 381.5 718.397C377.1 717.537 370.575 716.439 367 715.958C363.425 715.477 359.348 714.803 357.939 714.461C356.216 714.043 354.946 714.36 354.058 715.43ZM428.582 719.932C422.044 721.28 422.013 721.418 421.883 750.441C421.728 784.835 422.079 812.379 422.679 813C422.945 813.275 427.063 813.5 431.831 813.5H440.5L441 793.5L441.5 773.5L446.01 773.205C450.054 772.94 450.881 773.282 454.01 776.508L457.5 780.106L457.816 796.449L458.132 812.793L462.471 813.443C464.858 813.801 469.103 813.79 471.905 813.418L477 812.742V799.447C477 784.641 475.932 778.04 472.266 770.179L469.784 764.859L472.074 762.422C473.333 761.081 474.95 758.301 475.667 756.242C477.204 751.827 477.438 739.389 476 738.5C475.45 738.16 475 737.106 475 736.157C475 733.762 465.249 724.588 461 722.985C459.075 722.259 457.05 721.337 456.5 720.936C454.959 719.813 432.994 719.023 428.582 719.932ZM455.077 740.923C462.552 748.398 455.651 757.923 444 756.213L441 755.773V747.45V739.127L444.25 738.723C451.279 737.851 452.19 738.036 455.077 740.923Z" fill="#4B1532"/>
</svg>
